<?xml version="1.0" encoding="utf-8"?>
<!-- Generator: Adobe Illustrator 24.3.0, SVG Export Plug-In . SVG Version: 6.00 Build 0)  -->
<svg version="1.1" id="Capa_1" xmlns="http://www.w3.org/2000/svg" xmlns:xlink="http://www.w3.org/1999/xlink" x="0px" y="0px"
	 viewBox="0 0 460.38 801.27" enable-background="new 0 0 460.38 801.27" xml:space="preserve">
<linearGradient id="SVGID_1_" gradientUnits="userSpaceOnUse" x1="230.1895" y1="165.7228" x2="230.1895" y2="626.1019">
	<stop  offset="0" style="stop-color:#FFFFFF"/>
	<stop  offset="1" style="stop-color:#333333"/>
</linearGradient>
<path fill="url(#SVGID_1_)" d="M230.19,801.27l-5.55-5.04c-2.17-1.97-217.2-201.49-224.59-563.7L0,230.06l1.31-2.09
	C58.12,137.42,218.26,9.49,225.05,4.08L230.19,0l5.14,4.08c6.79,5.4,166.93,133.33,223.74,223.9l1.31,2.09l-0.05,2.46
	c-7.39,362.21-222.43,561.73-224.59,563.7L230.19,801.27z M16.59,234.67C24,555.31,196.77,744.89,230.19,778.6
	c33.42-33.71,206.19-223.29,213.6-543.93c-50.81-79.2-185.58-190.77-213.6-213.53C202.17,43.91,67.39,155.49,16.59,234.67z"/>
<linearGradient id="SVGID_2_" gradientUnits="userSpaceOnUse" x1="274.3714" y1="187.3056" x2="118.0561" y2="602.6541">
	<stop  offset="0" style="stop-color:#30365C"/>
	<stop  offset="1" style="stop-color:#191B2E"/>
</linearGradient>
<path fill="url(#SVGID_2_)" d="M230.19,10.54c0,0-165.18,131.41-221.89,221.82c7.4,362.85,221.89,557.76,221.89,557.76
	s214.49-194.91,221.89-557.76C395.37,141.95,230.19,10.54,230.19,10.54"/>
<linearGradient id="SVGID_3_" gradientUnits="userSpaceOnUse" x1="73.0498" y1="396.0518" x2="185.6651" y2="589.7427">
	<stop  offset="0" style="stop-color:#314F96"/>
	<stop  offset="1" style="stop-color:#172647"/>
</linearGradient>
<path fill="url(#SVGID_3_)" d="M232.34,592.53l-53.9-116.88l-47.12-146.41l-18.65-11.16L8.29,232.42
	c7.43,362.81,221.89,557.7,221.89,557.7l0.01-0.01l0.15-157.37L232.34,592.53z"/>
<linearGradient id="SVGID_4_" gradientUnits="userSpaceOnUse" x1="222.441" y1="102.8991" x2="72.1144" y2="266.3194">
	<stop  offset="0" style="stop-color:#506EAF"/>
	<stop  offset="1" style="stop-color:#314F97"/>
</linearGradient>
<path fill="url(#SVGID_4_)" d="M131.97,313.74l98.37-121.09v-22.21L230.2,10.55l-0.01-0.02c0,0-165.18,131.42-221.9,221.82v0.06
	l99.7,81.85L131.97,313.74z"/>
<linearGradient id="SVGID_5_" gradientUnits="userSpaceOnUse" x1="209.5039" y1="80.1518" x2="359.1229" y2="244.0157">
	<stop  offset="0" style="stop-color:#263362"/>
	<stop  offset="1" style="stop-color:#314280"/>
</linearGradient>
<path fill="url(#SVGID_5_)" d="M230.19,10.54l0.09,157.36l0.06,39.82l81.36,106.55l42.81,1.8l97.58-83.6c0-0.03,0.01-0.06,0.01-0.1
	C395.39,141.99,230.31,10.64,230.19,10.54"/>
<g>
	<defs>
		<path id="SVGID_6_" d="M106.64,313.02c28.88,188,123.7,331.13,123.7,331.13s66.34-96.1,106.19-234.22h-81.72
			c-10.92,51.65-24.84,85.83-24.84,85.83s-26.37-67.53-34.4-156.23c8.79-26.11,34.4-57.95,34.4-57.95s24.15,31.44,35.53,57.95
			c-0.54,5.97-1.17,11.83-1.87,17.59h86.25c3.11-14.38,5.86-29.1,8.17-44.1c-31.61-55.36-127.71-146.19-127.71-146.19
			S138.26,257.67,106.64,313.02"/>
	</defs>
	<clipPath id="SVGID_7_">
		<use xlink:href="#SVGID_6_"  overflow="visible"/>
	</clipPath>
	
		<linearGradient id="SVGID_8_" gradientUnits="userSpaceOnUse" x1="3094.782" y1="755.4986" x2="3100.1729" y2="755.4986" gradientTransform="matrix(-2.000000e-06 45.5827 45.5827 2.000000e-06 -34205.3164 -140839.1875)">
		<stop  offset="0" style="stop-color:#DFDFDF"/>
		<stop  offset="1" style="stop-color:#FFFFFF"/>
	</linearGradient>
	<rect x="106.64" y="166.83" clip-path="url(#SVGID_7_)" fill="url(#SVGID_8_)" width="251.4" height="477.32"/>
</g>
<g>
	<defs>
		<path id="SVGID_9_" d="M349.88,353.83H264c-0.13,1.1-0.24,2.21-0.38,3.29h86.25c3.11-14.38,5.86-29.1,8.17-44.1
			c-0.11-0.18-0.22-0.37-0.33-0.56C355.48,326.52,352.85,340.33,349.88,353.83"/>
	</defs>
	<use xlink:href="#SVGID_9_"  overflow="visible" fill="#C6C6C5"/>
	<clipPath id="SVGID_10_">
		<use xlink:href="#SVGID_9_"  overflow="visible"/>
	</clipPath>
	<rect x="263.63" y="312.47" clip-path="url(#SVGID_10_)" fill="#C6C6C5" width="94.42" height="44.65"/>
</g>
<g>
	<defs>
		<path id="SVGID_11_" d="M106.64,313.02c28.88,188,123.7,331.13,123.7,331.13s66.34-96.1,106.19-234.22h-1.25
			C295.31,543.4,230.34,635.88,230.34,635.88S136.2,496.23,106.96,312.47C106.86,312.66,106.75,312.84,106.64,313.02"/>
	</defs>
	<clipPath id="SVGID_12_">
		<use xlink:href="#SVGID_11_"  overflow="visible"/>
	</clipPath>
	
		<linearGradient id="SVGID_13_" gradientUnits="userSpaceOnUse" x1="3024.5996" y1="815.4294" x2="3029.6353" y2="815.4294" gradientTransform="matrix(45.6514 0 0 -45.6514 -137970.5625 37703.8086)">
		<stop  offset="0" style="stop-color:#999A99"/>
		<stop  offset="1" style="stop-color:#EFEFEF"/>
	</linearGradient>
	<rect x="106.64" y="312.47" clip-path="url(#SVGID_12_)" fill="url(#SVGID_13_)" width="229.89" height="331.68"/>
</g>
<path fill="#FFFFFF" d="M230.34,175.64c0,0,94.56,87.74,126.93,142.19c0.26-1.6,0.53-3.2,0.78-4.81
	c-31.61-55.36-127.71-146.19-127.71-146.19s-92.08,90.83-123.69,146.19c0.25,1.61,0.51,3.22,0.77,4.82
	C139.72,263.4,230.34,175.64,230.34,175.64"/>
<path fill="#FFFFFF" d="M265.05,344.14c-0.44,4.38-0.9,8.71-1.42,12.98h0.62c0.45-3.95,0.88-7.92,1.25-11.96
	C265.35,344.82,265.19,344.48,265.05,344.14"/>
<polygon fill="#0186BE" points="108.16,310.46 106.64,313.02 11.5,235.05 "/>
<polygon fill="#A8D2E3" points="230.34,17.59 230.34,166.83 234.26,170.58 "/>
</svg>
